<svg xmlns="http://www.w3.org/2000/svg" viewBox="0 0 129.805 107.487" role="img" aria-label="CTI">
  <path fill="currentColor" d="M146.593,40.505c-2.382,2.955-5.932,4.046-7.923,2.441s-1.677-5.309.709-8.265,5.932-4.045,7.926-2.438,1.672,5.307-.712,8.261" transform="translate(-39.824 -9.133)" />
  <path fill="currentColor" d="M122.962,39.832,129.8,40.9l-.009-.868v-.328l-.009-.242-.049-.473c-.065-.629-.13-1.259-.2-1.9a40.773,40.773,0,0,0-1.619-7.648,13.389,13.389,0,0,0-.672-1.889c-.251-.623-.5-1.25-.757-1.875-.542-1.241-1.227-2.432-1.848-3.655-.739-1.16-1.467-2.345-2.3-3.459-.9-1.059-1.709-2.213-2.709-3.2a43.326,43.326,0,0,0-13.861-9.743A63.719,63.719,0,0,0,89.106.944,89.463,89.463,0,0,0,20.841,19.429,59.515,59.515,0,0,0,7.981,33.166,48.486,48.486,0,0,0,.909,69.315l.464,2.259L2,73.848c.4,1.583.928,2.817,1.394,4.206l.124.341.119.266.231.528.471,1.055a19.278,19.278,0,0,0,1,2.072l1.121,2c.361.672.832,1.272,1.247,1.9a41.942,41.942,0,0,0,5.8,6.817c1.12.956,2.169,1.991,3.357,2.829L18.6,97.175l1.8,1.179a54.757,54.757,0,0,0,15.186,6.711c1.3.344,2.586.714,3.891.949,1.3.276,2.588.528,3.915.689.655.093,1.307.187,1.958.276.621.055,1.242.107,1.86.162.647.047,1.17.106,1.911.145.626.016,1.242.033,1.859.059,2.472.069,4.9.2,7.29.115,1.191-.013,2.374-.03,3.545-.046s2.328-.128,3.477-.192A113.542,113.542,0,0,0,89.94,103a118.063,118.063,0,0,0,17.987-6.707,110.441,110.441,0,0,0,10.822-5.962c1.2-.768,2.115-1.366,2.728-1.8a1.148,1.148,0,0,0,.627-1.049v-.009a.289.289,0,0,0-.179-.249,1.26,1.26,0,0,0-1.206.2c-.6.391-1.517.945-2.727,1.659a108.216,108.216,0,0,1-10.857,5.464,115.153,115.153,0,0,1-17.905,5.928,110.292,110.292,0,0,1-24.091,3.217c-1.113.022-2.24.082-3.379.065s-2.289-.055-3.45-.081c-2.321-.009-4.687-.222-7.091-.383-.6-.038-1.2-.08-1.811-.123-.485-.035-1.187-.137-1.779-.2-.615-.072-1.233-.141-1.855-.213-.583-.1-1.172-.2-1.762-.3-1.174-.175-2.362-.447-3.566-.741-1.209-.247-2.387-.63-3.585-.978a49.875,49.875,0,0,1-13.722-6.528A39.826,39.826,0,0,1,12.126,83.239a34.757,34.757,0,0,1-3.568-6.968c-.428-1.34-1-2.781-1.263-4.023L6.8,70.32,6.419,68.3A44.751,44.751,0,0,1,6.6,51.817a47.249,47.249,0,0,1,6.225-15.541A58.625,58.625,0,0,1,24.236,23.4,82.39,82.39,0,0,1,54.774,6.812,75.992,75.992,0,0,1,71.733,3.925,67.173,67.173,0,0,1,88.5,4.99c10.719,1.988,20.541,7.013,26.59,14.39a33.233,33.233,0,0,1,6.394,12.061,34.153,34.153,0,0,1,1.292,6.418c.048.536.1,1.068.149,1.6l.039.4h0l0,.085,0,.214.024.873a14.226,14.226,0,0,1-.042,1.459c0,.432-.089.96-.134,1.444a37.406,37.406,0,0,1-3.478,11.277,54.2,54.2,0,0,1-5.772,9.481c-4.275,5.619-8.966,9.919-13.436,12.332C94,80.33,71.229,89.938,82.057,71.137c2.5-4.344,16.526-27.648,16.526-27.648s-5.326,1.485-9.009.077c0,0-10.651,19.739-18.956,28.122s-11.983,10.023-14.1,10.1-4.15-1.8,1.8-12.141,15.2-25.458,15.2-25.458H82.6l1.1-1.725-9.558.081,7.913-13.241s-5.407.707-8.07-.234l-7.91,13.394H58.871L57.54,44.115H64.9S57.653,57.86,48.058,67.847c-9.7,10.106-19.643,18.593-24.038,9.977-5.056-9.915,9.09-26.994,14.31-30.186,3.761-2.3,12.2-5.247,9.945,2.076-.247.8-1.117,2.035-.707,2.9a1.353,1.353,0,0,0,2.351-.019,13.111,13.111,0,0,0,.138-5.249c-.3-2-1.568-4.307-5.348-4.23s-9.339,1.938-16.331,7.361A39.208,39.208,0,0,0,16.7,64.976c-1.226,3.055-3.41,12.038,3.638,17.285s15.737-.834,18.348-2.9S48.662,70.17,49.5,69.154a15.665,15.665,0,0,0-1.429,8.8c.68,5.954,7.6,7.754,12.868,4.569,4.562-2.764,10.347-8.772,12.9-11.853,0,0-3.189,5.449.419,10.025,6.788,8.617,23.959.9,27.431-.858a56.775,56.775,0,0,0,15.677-11.924,53.786,53.786,0,0,0,7.375-9.862,37.715,37.715,0,0,0,4.767-13.217c.075-.638.185-1.236.212-1.951.033-.656.107-1.461.081-1.98" />
</svg>
